<?xml version="1.0" encoding="UTF-8"?><svg id="a" xmlns="http://www.w3.org/2000/svg" viewBox="0 0 429.7 304.9"><defs><style>.d{fill:#fafafa;}.d,.e{stroke-width:0px;}.f{isolation:isolate;}.e{fill:#fff;}</style></defs><g id="b"><g class="f"><g class="f"><path class="d" d="M4,265v-40.1c0-12.2,6.7-19.2,19.7-19.2s19.7,7,19.7,19.2v2.7c0,2.4-1.6,3.8-4.2,3.8h-4.1c-2.6,0-4.2-1.4-4.2-3.7v-3.6c0-5.4-2.6-7.5-6.8-7.5s-6.8,2.1-6.8,7.5v41.7c0,5.4,2.6,7.4,6.8,7.4s6.8-2,6.8-7.4v-14.9h-3c-2.6,0-4.2-1.4-4.2-3.8v-3.3c0-2.4,1.6-3.8,4.2-3.8h11.3c2.6,0,4.2,1.4,4.2,3.8v21.1c0,12.2-6.7,19.2-19.7,19.2s-19.7-7-19.7-19.2Z"/><path class="d" d="M63.8,279.3v-68.7c0-2.4,1.6-3.8,4.2-3.8h27.6c2.6,0,4.2,1.4,4.2,3.8v3.3c0,2.4-1.6,3.8-4.2,3.8h-18.6v20.2h13.9c2.6,0,4.2,1.4,4.2,3.8v3.3c0,2.4-1.6,3.8-4.2,3.8h-13.9v23.4h18.6c2.6,0,4.2,1.4,4.2,3.8v3.3c0,2.4-1.6,3.8-4.2,3.8h-27.6c-2.6,0-4.2-1.4-4.2-3.8Z"/><path class="d" d="M119.3,279.3v-68.7c0-2.4,1.6-3.8,4.2-3.8h8.6c2.5,0,4.1,1,4.7,3.3l11.9,42.4h.2v-41.9c0-2.4,1.6-3.8,4.2-3.8h3.4c2.6,0,4.2,1.4,4.2,3.8v68.7c0,2.4-1.6,3.8-4.2,3.8h-5.6c-2.5,0-4.1-1-4.7-3.3l-14.9-52.4h-.2v51.9c0,2.4-1.6,3.8-4.2,3.8h-3.4c-2.6,0-4.2-1.4-4.2-3.8Z"/><path class="d" d="M182.5,279.3v-68.7c0-2.4,1.6-3.8,4.2-3.8h4.8c2.6,0,4.2,1.4,4.2,3.8v68.7c0,2.4-1.6,3.8-4.2,3.8h-4.8c-2.6,0-4.2-1.4-4.2-3.8Z"/><path class="d" d="M217,265v-54.4c0-2.4,1.6-3.8,4.2-3.8h4.8c2.6,0,4.2,1.4,4.2,3.8v55.3c0,5.4,2.5,7.4,6.7,7.4s6.7-2,6.7-7.4v-55.3c0-2.4,1.6-3.8,4.2-3.8h4.3c2.6,0,4.2,1.4,4.2,3.8v54.4c0,12.2-6.7,19.2-19.7,19.2s-19.7-7-19.7-19.2Z"/><path class="d" d="M275.4,265v-.5c0-2.4,1.6-3.8,4.2-3.8h4.1c2.6,0,4.2,1.4,4.2,3.8v1.4c0,5.4,2.6,7.4,6.8,7.4s6.8-2,6.8-7.6-2.6-10.4-11.3-17.2c-11-8.8-14.6-15-14.6-23.8s6.8-19,19.7-19,19.2,7.2,19.2,18.5-1.6,3.8-4.2,3.8h-4.1c-2.6,0-4.2-1.2-4.2-3.8h0c0-5.6-2.4-7.6-6.6-7.6s-6.6,2.1-6.6,7.3,2.8,9.6,11.4,16.5c11,8.8,14.5,14.9,14.5,24.4s-7,19.4-19.9,19.4-19.4-7-19.4-19.2Z"/></g><g class="f"><path class="d" d="M334.3,279.3v-68.7c0-2.4,1.6-3.8,4.2-3.8h27.6c2.6,0,4.2,1.4,4.2,3.8v3.3c0,2.4-1.6,3.8-4.2,3.8h-18.6v20.2h13.9c2.6,0,4.2,1.4,4.2,3.8v3.3c0,2.4-1.6,3.8-4.2,3.8h-13.9v23.4h18.6c2.6,0,4.2,1.4,4.2,3.8v3.3c0,2.4-1.6,3.8-4.2,3.8h-27.6c-2.6,0-4.2-1.4-4.2-3.8Z"/></g><g class="f"><path class="d" d="M387.7,265v-.5c0-2.4,1.6-3.8,4.2-3.8h4.1c2.6,0,4.2,1.4,4.2,3.8v1.4c0,5.4,2.6,7.4,6.8,7.4s6.8-2,6.8-7.6-2.6-10.4-11.3-17.2c-11-8.8-14.6-15-14.6-23.8s6.8-19,19.7-19,19.2,7.2,19.2,18.5-1.6,3.8-4.2,3.8h-4.1c-2.6,0-4.2-1.2-4.2-3.8h0c0-5.6-2.4-7.6-6.6-7.6s-6.6,2.1-6.6,7.3,2.8,9.6,11.4,16.5c11,8.8,14.5,14.9,14.5,24.4s-7,19.4-19.9,19.4-19.4-7-19.4-19.2Z"/></g></g><g class="f"><g class="f"><path class="d" d="M81.2,170.7v-26.3h1.8v26.3c0,10.3,4.1,17,13.3,17s13.1-6.8,13.1-17v-26.3h1.8v26.3c0,10.3,3.9,17,13,17s13.3-6.8,13.3-17v-26.3h1.8v26.3c0,11.3-4.7,18.8-15.1,18.8s-12.3-4.3-14-12c-1.7,7.7-6.5,12-13.9,12s-15.1-7.5-15.1-18.8Z"/><path class="d" d="M148,172.7c0-9.9,6-16.9,15.7-16.9s15.2,7,15.2,16.3,0,.6,0,1.1h-29c0,8.7,5.3,14.5,14.6,14.5s8.5-1.1,12.1-3.6l.9,1.6c-3.4,2.3-8.5,3.8-13,3.8-10.5,0-16.5-7-16.5-16.9ZM177,171.5c-.4-8.1-5.6-13.9-13.3-13.9s-13.7,5.9-13.7,13.9h27Z"/><path class="d" d="M216.7,164.1c0-12.7,6.8-20.5,18.5-20.5s18.5,7.8,18.5,20.5v24.7h-1.8v-14h-33.5v14h-1.8v-24.7ZM252,173.1v-8.9c0-11.6-6.1-18.7-16.7-18.7s-16.7,7.1-16.7,18.7v8.9h33.5Z"/></g><g class="f"><path class="d" d="M279.5,156.5h1.5l.3,8.2c2.2-6.4,6.6-8.9,12.5-8.9s1.7.1,2.3.2v1.9c-.4,0-1.3-.2-2.3-.2-8,0-12.6,5.9-12.6,14.9v16.1h-1.7v-32.3Z"/></g><g class="f"><path class="d" d="M302.3,172.7c0-9.9,6-16.9,15.7-16.9s15.2,7,15.2,16.3,0,.6,0,1.1h-29c0,8.7,5.3,14.5,14.6,14.5s8.5-1.1,12.1-3.6l.9,1.6c-3.4,2.3-8.5,3.8-13,3.8-10.5,0-16.5-7-16.5-16.9ZM331.3,171.5c-.4-8.1-5.6-13.9-13.3-13.9s-13.7,5.9-13.7,13.9h27Z"/></g></g><g id="c"><path class="e" d="M202.8,104.6c-.5,1.1-.3,3,.5,4.4l.5.9.2-.7c0-.4.1-1.8.1-3,0-2.6-.5-3.1-1.2-1.6h-.1Z"/><path class="e" d="M205,103.1c-.2,0-.2,2.3-.1,6.6,0,3.8.3,6.6.4,6.5.1,0,.2-3.1.1-6.6,0-4.2-.2-6.5-.4-6.5Z"/><path class="e" d="M194.3,42.2c.2-.2,1-.7,1.8-1.1,1.2-.6,1.8-.6,3.3-.5,1,0,2.1.3,2.4.4.7.3.9,0,.9-.9v-.8h-2.4c-1.8,0-2.7,0-3.7-.5-1.2-.5-3.2-2.3-4-3.6-.3-.5-.4-.4-1.6.9-.7.8-1.3,1.6-1.3,1.8,0,.8,1.2,2.6,2.4,3.6,1.3,1.1,1.8,1.2,2.3.6h0Z"/><path class="e" d="M201.9,101.2c-.6-.1-.9,0-1.5.7-.6.8-.7,1.1-.5,2.8.1,1.3.4,2.2.8,2.9.4.6.7,1,.8,1v-1.4c-.3-1.9,0-3.2.9-4.2s.7-1.6-.4-1.8h-.1Z"/><path class="e" d="M206.5,107c0,1.8,0,2.5.3,2.5s.5-.3.6-.6c.4-.8.3-3.6-.1-4-.7-.6-.8-.3-.8,2.1h0Z"/><path class="e" d="M205.8,96.1c0-2.4-.3-3.4-1-3.4s-.2,3.9.2,4.3c.6.6.8.4.8-.9h0Z"/><path class="e" d="M206.5,85.7c-2.1-1.3-4.2-3-4.7-4-.7-1.2-.6-3.2.2-4.4q.8-1.2-1.8-2.8c-1.8-1.1-1.9-1-3.1,1.2-1.1,2.1-1.2,4.3-.3,6.9.6,1.7,1,2.3,2.5,3.8,1.1,1.1,2.5,2.1,3.6,2.7,3.6,1.7,5.4,4,4.4,5.6-.3.4-.4,1.3-.4,2.1,0,2.4,1.1,2.7,3,1,1.5-1.4,2.2-3,2.2-4.9,0-2.8-1.8-5.1-5.5-7.3h-.1Z"/><path class="e" d="M207.1,99.3c-.3-.2-1.1-.8-1.8-1.3s-1.6-1.4-2-2.1c-.7-1-.8-1.4-.7-2.9v-1.7l-1.1-.7c-.7-.4-1.4-.7-1.7-.7-1.2,0-1.8,3.8-.9,5.8.9,2,3.6,4.3,6.4,5.3,1.5.6,3.2,2.3,3.4,3.6.2,1,.1,2.5-.3,3.9-.2.7-.1.7.3.3.3-.2.7-.9,1.1-1.4,1.8-3,1-5.3-2.7-8.1h0Z"/><path class="e" d="M203.9,94.4v-1q-.1-.5-.3,0c-.1.3-.1.7,0,1q.2.5.3,0Z"/><path class="e" d="M202.6,48c.2-.9.2-3.5,0-3.5s-.6.3-1.1.7c-.5.4-1.3.9-1.9,1.1l-1,.4,1.7.9c2.1,1.1,2.1,1,2.2.4h.1Z"/><path class="e" d="M205.4,26.4c-1.1,0-2,0-2.1,0v12.3c0,9.5.2,12.2.5,12.4.5.3,2,.8,2.5.9.2,0,.4,0,.4-.3.1-1.1.2-3.1.3-9.9.1-4.1.2-7.7.3-7.9v-7.2l-2-.2h.1Z"/><path class="e" d="M198.6,48.3c1.8,1.8,4.7,2.9,4.1,1.6-.2-.5-3.7-2.5-4.4-2.5s-.5,0,.3.9h0Z"/><path class="e" d="M209.7,48.4c-1.5.7-1.9,1.3-1.5,2.2.2.5.3.5,1.7-.2,1.3-.6,3.3-2.4,3.3-2.9s-.2-.3-.4-.3-.4,0-.4-.3-.4-.4-.9-.6c-.6,0-1.5-.6-2-1.1l-1-.9v3.8s.7,0,1.5-.3c1.8-.6,1.7-.2-.2.7h-.1Z"/><path class="e" d="M185.1,24.5c.7-1.2,1-.9,1.1.9,0,3.4,3.2,6.3,6.7,6.2.5,0,.9,0,.9.3s-.1.3-.3.3c-.5,0,0,2.2.7,3.2.9,1.2,2.7,2.2,4.2,2.5,1.1.2,1.6.2,3.3-.2.8-.2.9-.9.9-3.8v-2.4l-1.8.2-1.7.2-1.3-1.3c-1.7-1.6-1.7-2.4-.4-3.6,1.3-1.1,1.9-2.4,1.8-4.1,0-1.2-.2-1.6-1.1-2.6-1.5-1.6-3.4-2.2-6.1-2.1-1.8,0-2.4.3-4.5,1.3-1.3.7-3.1,1.8-4,2.4s-2.7,1.9-4,2.8c-5.2,3.6-7.9,5.2-13,7.6l-1.1.5.8.4c1.5.8,3.8.8,5.7,0,3.4-1.3,12.3-7.2,13.2-8.6h0Z"/><path class="e" d="M188.3,32.2l-.9-.9c-.5-.5-1.1-.9-1.2-.9s-.9.6-1.7,1.4c-1.9,1.8-4,3.4-5.6,4.2-1.5.8-1.5,1.1-.3,1.3,1.4,0,2.5,0,4-.9.7-.4,2.3-1.5,3.5-2.4l2.2-1.7h0Z"/><path class="e" d="M190.3,32.4c-1.1-.2-1.1,0-3,1.9-1.1,1.1-2.3,2.3-2.7,2.6-.9.6-1,.9-.3,1.1s2.1,0,3.3-.7,1.6-1.1,2.4-1.8c2.2-2,2.3-2.7.3-3h0Z"/><path class="e" d="M185.7,29.6c0-.4-1-2.8-1.2-2.8s-1.9,1.3-3.9,2.9c-3.2,2.5-7.1,4.9-8.1,4.9s-.2.6.6.8c1.7.4,2.9.3,4.7-.6,1.5-.8,7.9-4.9,7.9-5.2Z"/><path class="e" d="M203.3,24.3c1.2,1.1,1.3,1.1,2.7,1,1.2,0,1.6-.3,2.2-1.1,2-2.5.4-5.8-2.8-5.7-1.2,0-1.6.2-2.4,1-.8.9-1,1.2-.9,2.4,0,1.2.1,1.5,1.3,2.5h-.1ZM205.8,23.4c.9-.3,1.6-2.1,1.2-2.8-.7-1.1,0-1.6.9-.6.7.7.6,2.2-.1,3.1-.7.8-2,1.3-2.3.8-.1-.2,0-.4.4-.5h0Z"/><path class="e" d="M219,35.8c-.1,0-.8.4-1.5,1.1-1.9,1.7-3.1,2.3-5.4,2.3h-2.7c-.7,0-.7,0-.7.9s0,1.1,2.3.5c1.8-.5,4.3.2,5.9,1.5.6.5,1.3.9,1.5.9s1-.6,1.6-1.3c.7-.7,1.4-1.7,1.7-2.1.5-.7.4-.8-1-2.2-.8-.8-1.5-1.5-1.7-1.6h0Z"/><path class="e" d="M232.4,36.5c-2.1-1.2-3.5-2.3-4.6-3.3-2.4-2.3-2.3-2.3-3.3-1.7s-.9.8-.9,1c0,.7,3.4,3.6,5.1,4.4,1.6.7,4.6.9,4.6.4s-.4-.5-.8-.8h-.1Z"/><path class="e" d="M225.9,37.1c-.6-.3-1.6-1.5-2.4-2.6-1.2-1.8-1.5-2-2.3-2-2,0-2.1,1.3-.2,3.2,1.4,1.5,2.6,2.2,4,2.5.5,0,.9.2.9.2,0,0,.3,0,.5-.2.7-.3.5-.6-.6-1.3v.2Z"/><path class="e" d="M208.8,65.9c.7-1.2.8-2.3,0-3.3-.3-.5-.7-.9-.9-.8-.4.2-.3,4.8,0,4.8s.5-.3.7-.7h.2Z"/><path class="e" d="M212.1,41c-1.9,0-3.4.6-3.6,1.4,0,.3.3.9.8,1.4.7.8,1.1.9,2.6,1,1.5,0,1.8,0,2.6-.7.5-.4,1-.8,1.1-.8.2,0,0,2.3-.4,3-1,2.1-3.6,4.3-6,5.2-1.5.5-1.3,1.1.7,2.1,1.8.9,2.1.9,3,.5,2.7-1.5,5-4.9,5.2-7.7,0-1.6,0-1.8-.8-2.9-1.4-1.8-3-2.5-5.1-2.5h-.1ZM212.9,42.3c-.2,0-.5.2-.5.2,0,0-.3,0-.6-.2-.8-.2-.6-.7.3-.7s1.4.4.7.7h.1Z"/><path class="e" d="M268.3,34.6c0-19.1-15.5-34.6-34.6-34.6s-21.8,5.7-28.1,14.4c-6.3-8.3-16.3-13.7-27.6-13.7-19.1,0-34.6,15.5-34.6,34.6-3.6,23.6,60.8,99.5,60.8,99.5,0,0,47.8-55.5,60.9-85.8.4-.8.7-1.7,1.1-2.6,1.8-4.8,2.7-8.9,2.1-11.8ZM244.5,35.8c-.6.3-1.6.6-2.2.6s-1.9.4-2.8.8c-1.3.6-1.9.8-2.9.6-.9,0-1.5,0-1.9.3-.7.5-2.5.9-4.8,1-4.8.4-6.4.5-6.6.7-.2,0-.5.6-.7,1.2-.4,1.1-1.6,2.4-2.8,3.2-.7.5-.8.7-.8,2.4,0,2.6-.9,4.6-3.2,7.1l-1.9,2,1.2,1.4c1.8,2.1,2.4,3.5,2.5,6,0,3.9-.8,6.1-3.5,8.5l-1.3,1.2.9.9c2.1,2.2,2.3,2.7,2.4,5.8,0,3.6-.4,4.6-2.9,6.9-1.6,1.4-2.1,2.3-1.4,2.3s.7.7,1.1,1.6c1.3,2.9.8,5.9-1.5,8.6-.6.7-1.1,1.4-1.1,1.5,0,0,.3.6.7,1.2.6.9.7,1.4.8,2.9,0,3.3-1.9,5.9-4.5,6h-.8v3.3c-.2,3-.4,3.7-1.1,3.7,0,0-.4-.2-.6-.5-.3-.3-.4-1.3-.5-3.2v-2.7l-1.2-.5c-2.6-1.1-3.7-2.8-3.7-6s0-2.2.7-3.1c.5-.8.3-1.7-.6-2.6-1.9-2-2.4-7-.9-8.7.3-.3.6-.8.6-.9,0-.2-.6-1.1-1.4-2-2.3-2.9-2.6-3.6-2.7-6.7,0-2.5,0-2.9.7-4.2.4-.8,1.2-1.9,1.6-2.4l.8-.9-1.1-1.2c-.6-.7-1.4-2-1.9-2.8-.7-1.4-.8-2-.9-4.9,0-2.9,0-3.5.6-4.8.4-.8,1-1.9,1.5-2.3.8-.8,1.1-1.6.6-1.6s-1-.7-1.9-1.5c-2.5-2.3-3.8-6.5-2.9-8.8l.4-1.1-1.1-.8c-1.1-.8-1.7-1.7-2.6-3.8l-.4-1.1-1.5.5c-1.4.5-1.5.5-3,0-1-.4-2.1-.6-3.2-.5-1.1,0-2,0-3-.6s-2-.7-2.7-.7-1.8-.4-2.9-1c-1.2-.7-2-1-2.9-1-1.4,0-3.7-1-4.9-2.3l-.8-.8,1.6-.4c1.9-.5,7.1-3.2,10.6-5.6,1.4-1,4.4-3,6.6-4.5,4.9-3.4,5.3-3.6,7.5-4,5.2-1.1,9.4,1.2,10.1,5.7.3,1.7-.2,3.2-1.4,4.7-.5.6-.9,1.2-.9,1.4s.4.6.9,1c.8.6,1.1.7,1.9.6,1.5-.3,1.8-.7,1.7-3.1,0-1.6-.2-2.5-.6-3.4-1.3-2.5-.6-5.2,1.6-6.4,3-1.6,6.2,0,6.7,3.1.1.9,0,1.6-.6,2.9-.6,1.5-.7,2-.6,4.2v2.5h1.5c1.3,0,3.1-.6,3.1-1.1s-.3-.6-.7-1.1c-1.7-2.2-1.9-5.7-.5-8,1.8-2.8,4.3-3.7,8-3,3.4.6,4.8,1.5,13.1,7.5,2,1.4,5.3,3.6,7.4,4.7,3.6,2,3.9,2.1,5.3,1.9,1.4,0,1.5,0,1.5.5,0,.8-1.8,3-3.1,3.7h.2Z"/><path class="e" d="M244.8,32.4c-2.8-.8-8.3-4-14.3-8.4-7.8-5.6-10.5-6.7-14.8-5.7-.9.2-2.7,1.9-3.1,3-.8,2-.2,4.4,1.5,6.1l1.1,1.1-.6,1c-1.3,2-3,2.6-5.2,2l-.8-.2v5.8c.1,0,1,.3,1,.3,1.3.4,2.6.3,4.1,0,1.7-.5,3.4-2,4-3.7.4-1.1.4-1.4,0-1.7-.2-.2-.3-.4-.3-.4,0,0,1.1,0,2.3,0,2,0,2.3-.2,3.5-1,1.9-1.4,2.9-3.9,2.4-5.9-.2-1,.7-.4,1.2.8s2.8,3.2,7.6,6.5c3.9,2.7,8.6,3.7,10.6,2.4,1.1-.7,1-1.2-.3-1.6v-.3Z"/><path class="e" d="M238.1,35.4c-.6,0-6.4-3.9-8.5-5.7-2.2-1.9-2.8-2.2-3.1-1.4-.4,1.2-.1,1.9,1.4,3.4,3.5,3.4,8,5.5,10,4.7.5-.2.6-1,.2-1Z"/><path class="e" d="M203.5,80.8c.2-.7.2-1.2,0-1.4-.4-.4-.7.8-.4,1.7.2.8.2.7.5-.3h-.1Z"/><path class="e" d="M207.5,82.3c.2-.2.3-.8.4-1.3,0-1.6-.6-1.4-.6.2s0,1.4.3,1.1h0Z"/><path class="e" d="M205.8,69.4c-.6-.3-1.8-1-2.9-1.7-1.6-1-1.9-1.4-2.4-2.7-1-2.5-.8-4.2.5-5.8.8-.9.5-1.3-1.4-2.3l-1.7-.8-1,1.2c-1.5,1.8-2,3.3-2,6s.2,2.6,1,4.1c1.1,2.1,3.1,4.1,5.5,5.5,3.7,2,6.6,4.1,7.2,4.9.3.5.6,1.4.6,2,0,1.2-.7,3-1.5,3.7s-.5,1.4.8,2.3c1.5,1,1.7,1,2.8.4,2-1.3,3.2-3.6,3.3-6.4,0-1.9,0-2.3-.8-3.9-.5-1-1.2-2.1-1.6-2.4-1-.8-5.2-3.6-6.4-4.2h0Z"/><path class="e" d="M203.1,63.7c0-2.2-.1-2.7-.5-2.7s-.9.7-1.1,2c-.1.7,0,1.3.4,2.2.9,2,1.2,1.6,1.2-1.5h0Z"/><path class="e" d="M211.8,55.5c-.1,0-1-.5-2.1-1.1s-3.4-1.5-5.3-2.1c-3.9-1.2-6.5-2.5-7.8-4.1-.7-.9-.9-1.4-1.1-2.8-.2-1.8,0-2.1.9-1.2,1.2,1.3,4.1.8,5.3-.8.6-.8.6-1.5-.2-1.8-2.1-.8-4.6-.5-6.5.9-2.4,1.7-3,4.6-1.6,7.2,1.3,2.5,3.2,3.8,9.5,6.8,5.3,2.5,6.3,3.1,7.1,4.4,1.1,1.8.5,4.6-1.5,6.5-1.1,1-1.2,1.5-.5,2.1s2.2,1.3,2.7,1.3,1-.5,1.7-1c2.4-1.8,3.5-4.2,3.5-7.4s-.2-2.2-.6-3c-.6-1.1-3.1-3.9-3.5-3.9ZM198.6,41.9c.5,0,.9,0,.9.3s-.2.3-.4.3-.6,0-.8.2h-.6c-.4-.4,0-.7,1-.7h0Z"/><path class="e" d="M204.9,67.9c1.3.7,1.4.6,1.5-3.4q.1-3.8-.6-4.3c-.9-.7-1.7-.9-2-.6-.1,0,0,2,0,4.1.2,3.7.3,3.8,1,4.2h.1Z"/><path class="e" d="M205,83.7c.4.3.7.5.9.4.1,0,.2-1.1.2-2.1,0-3.9,0-4-1-4.5l-.9-.4v3c.1,2.7.2,3.1.8,3.6Z"/></g></g></svg>